<?xml version="1.0" standalone="no"?><!DOCTYPE svg PUBLIC "-//W3C//DTD SVG 1.1//EN" "http://www.w3.org/Graphics/SVG/1.1/DTD/svg11.dtd"><svg t="1577677723464" class="icon" viewBox="0 0 1024 1024" version="1.1" xmlns="http://www.w3.org/2000/svg" p-id="4845" xmlns:xlink="http://www.w3.org/1999/xlink" width="32" height="32"><defs><style type="text/css"></style></defs><path d="M846.841 799.024L562.002 514.185l284.839-284.96c13.714-13.714 13.714-36.045 0-49.759s-36.045-13.714-49.759 0L512.243 464.305l-284.96-284.839c-13.714-13.714-36.045-13.714-49.759 0s-13.714 36.045 0 49.759l284.96 284.96-284.96 284.839c-13.714 13.714-13.714 36.045 0 49.759s36.045 13.714 49.759 0l284.96-284.96 284.96 284.96c13.714 13.714 36.045 13.714 49.759 0 13.593-13.714 13.593-36.045-0.122-49.759z" p-id="4846" fill="#bfbfbf"></path></svg>